# xmcd
# 
# Track frame offsets:
#     150
#     11406
#     23899
#     39339
#     52487
#     65540
#     81287
#     94965
#     106789
#     122590
#     134788
#     145717
#     159966
#     171810
#     184357
#     194361
#     207599
#     225237
#     241114
#     254911
# 
# Disc length: 3587
# 
# Revision: 3
# Processed by: cddbd v1.5.2PL0 Copyright (c) Steve Scherf et al.
# Submitted via: fre:ac v1.0.31
# 
DISCID=1d0e0114
DTITLE=Various Artist - The Tour Collection Disc 3: Mountain Memories
DYEAR=2008
DGENRE=Folk/Country
TTITLE0=Dolly Parton - Just the Way I Am
TTITLE1=Dolly Parton - In the Good Old Days (When Times Were Bad)
TTITLE2=Dolly Parton with Maura O'Connell and Carl Jackson - What Will Baby Be
TTITLE3=Dolly Parton - Daddy's Working Boots
TTITLE4=Dolly Parton - JJ Sneed
TTITLE5=Dolly Parton - My Blue Ridge Mountain Boy
TTITLE6=Dolly Parton - Daddy Come and Get Me
TTITLE7=Dolly Parton - Take Me Back
TTITLE8=Dolly Parton - Blackie, Kentucky
TTITLE9=Dolly Parton - Robert
TTITLE10=Dolly Parton - Chas
TTITLE11=Dolly Parton - My Tennessee Mountain Home
TTITLE12=Dolly Parton - Chicken Every Sunday
TTITLE13=Dolly Parton - Mama Say a Prayer
TTITLE14=Dolly Parton - I'm Doing This for Your Sake
TTITLE15=Dolly Parton - Early Morning Breeze
TTITLE16=Dolly Parton - Green Eyed Boy
TTITLE17=Dolly Parton - Daddy's Moonshine Still
TTITLE18=Dolly Parton with Porter Wagoner - Daddy Was an Old Time Preacher Man
TTITLE19=Dolly Parton - Mule Skinner Blues (Blue Yodel No.8)
EXTD=YEAR: 2008
EXTT0=
EXTT1=
EXTT2=
EXTT3=
EXTT4=
EXTT5=
EXTT6=
EXTT7=
EXTT8=
EXTT9=
EXTT10=
EXTT11=
EXTT12=
EXTT13=
EXTT14=
EXTT15=
EXTT16=
EXTT17=
EXTT18=
EXTT19=
PLAYORDER=
